<svg xmlns="http://www.w3.org/2000/svg" width="360" height="440" viewBox="0 0 360 440"><g stroke="#242c2e" stroke-width="5" stroke-linejoin="round"><path fill="#364349" d="M153 160 44 75 59 225 139 274M209 151 303 70 294 226 225 281Z"/><path fill="#aca590" d="m158 146-35 103 14 118h108l-12-129-31-94z"/><path fill="#70594f" d="m143 248 92 0 32 119-66 18-72-19z"/><path fill="#aa6b52" d="M151 70Q190 42 219 82L212 132 176 154 149 124Z"/><path fill="#bd7a56" d="m204 91 57 15-54 15z"/><path fill="#383533" d="m146 70 29-36 46 40-37-13z"/><path fill="none" d="m159 96 17 3m9 24 15 0m-56 244-17 28 52 0m42-28 22 28h-43"/><path stroke="#c1b79b" d="m236 242 14-84m-14 84 37-76m-37 76 58-59m-58 59 69-34m-69 34 70-9"/></g></svg>
